<svg xmlns="http://www.w3.org/2000/svg" xmlns:xlink="http://www.w3.org/1999/xlink" viewBox="0 0 3000 3000" width="100%" height="100%"><defs><style>.cls-1-46{opacity:0.27;}.cls-2-46{fill:#adaaaf;}.cls-3-46{opacity:0.13;}.cls-4-46,.cls-5-46{fill:none;stroke:#000;stroke-linecap:round;stroke-miterlimit:10;}.cls-4-46{stroke-width:13px;}.cls-5-46{stroke-width:14px;}</style></defs><g id="body_ground_shadwo-46" data-name="body ground shadwo"><ellipse class="cls-1-46" cx="1334.82" cy="2682.24" rx="612.02" ry="58.67"/></g><g id="body_color_copy_8" data-name="body color copy 8"><path class="cls-2-46" d="M1075.21,1684.92l-86.3,76.44-81.19,108.46-57.17,122.51-32.25,136.1-6.75,96.68,6.35,91.23L835,2395.21l31.39,75.86,38.09,50.13,47.54,31,78.62,9.8,53.8-18.18,39.91-27.63,14.26-12.89-9.88,50-15.22,91.24,2.66,29.33,13.85,17,51.09,17.73,78.1,16.35h75.62l66.58-5.32,48.93-8.42,52-13.82,24.82-6.52,41.94,6.07,126.13,9.16,99.75-.28,77.23-5.54,66.85-9.41,35-7.15,26.94-20.17,3.93-17.17-4.13-32.14-26.1-52.19-43.66-30.74-77-13.9,10.76-205.51s11.6-13.31,15.48-16.39,47-58.42,47-58.42l25-55.24,10.56-19.26,31.14,13.27,62.08,11.3,70.55-7.08,44-23.38,49.3-35.46,42.09-44.1,45.13-60.73,24.32-63.88,17.23-65.23,5.15-65.54-6.61-53.5-17.62-48.7-32.84-34.56-44.43-25.16-50.48-7-43.5-2.38-47.62,10.35-47.78,27.42L2036,1718.43l-4.92,39.57,4.92,33.29-26.16,5.63-11.5,8.85-4.35,6.33-38.65-58.25-40.72-31.51-40.6-26.81,31.43-17.16,63.7-49.54,45.12-49.55L2062,1514.7l25.66-53.08,19.46-60.16s56.64-116.59,56.68-118.57c2-105.35-77-179.58-77-179.58l-26.54-55.74-22.12-48.66-38.92-53.08-40.7-42.47-35.39-32.73-84.93-62.81-67.24-33.62-70.78-27.43-73.43-21.23L1533,712.27l-76.08-3.54-109.71,10.61-100.85,26.55-81.4,33.62-67.24,37.15-77,58.39L963.2,934.33l-61.93,81.39-29.2,69-23.37,63.1-6.32,5.84L794.78,1169l-33.87,33-22.55,52v62.59l15.25,50.65L781,1405l52.34,22.55,25.51,2.22,26.54,65.47,44.24,61.93,38.93,41.58,61.93,50.43,47.77,29.19Z"/></g><g id="body_shadow" data-name="body shadow"><g class="cls-3-46"><path d="M1094.33,1787.19s-201.47,157.92-147.5,509.15c0,0,56.62,258.34,152.17,239.76l-45.17,19.08L987.54,2562l-45-14-53-42.94L852,2442.22s-19.3-58-20-60.58-15.21-73-15.21-73l-4.07-66,3.05-93.58,14.8-87.89,24.13-80.54,29.56-68.17,35.67-59,31.53-47.85,30.94-37.14,43.33-39.74,34.35-32.8,20.29-14.44-27.3-18.43-64-47.48-59.57-58.39-27.71-38.8-42.45-63.51-.62-25.09,42.47-18.58,35.39-38s89.35,468.89,829,367.15c13.61-1.87-115.08,25.45-101.63,22.66l90.13-18.72,59.92-21.23,59.94-27.48,16.88,11.15s-138.51,121.21-481.78,97.32S1157.34,1736.76,1094.33,1787.19Z"/><path d="M887.11,1291.31c0,35.64-22.14,64.54-49.45,64.54s-38.13-28.59-38.13-64.23,10.82-64.85,38.13-64.85S887.11,1255.67,887.11,1291.31Z"/><path d="M1573.17,2594.76c5-22.44,11.15-45.09,15.5-66,9.65-46.4,21-93.08,27.47-140,1.38-10.09,10.82-41.24-4.4-41.86a345.39,345.39,0,0,0-47.38,1.36l-45,207c-2.76,12.73-5.54,25.71-4.26,38.67,1.7,17.12,10.15,32.84,11.64,50,1.1,12.68-9.17,31.37,0,42.38,4.14,5,11.17,6.24,17.6,7.11,54.93,7.46,110,10.25,165.29,12.64h.92l112.2-1.68a17.54,17.54,0,0,0,1.77-.12l105.39-13.38,40.32-6.53a15.92,15.92,0,0,0,7-3l13.67-10.24c19.81-14.84,7.66-38.52,6.72-57.27l-8.71-23.49-9.17-10c5.94,6.46-12.78,24.53-16.48,27.49-13.29,10.63-30,17-46.12,22-49.56,15.11-100.57,18.33-151.92,21.17-41.23,2.29-82.9,2.88-123.77-3.88-14.26-2.36-29.29-5.19-42.53-11.13C1581.78,2628.28,1568.73,2614.52,1573.17,2594.76Z"/><path d="M1964,2021.1s239.6,257.11,382-130.4l-20.31,76.86L2277.13,2057l-57.28,64.14-72.94,47.35-81.48,18.63-48.89-5-53.72-19.66v-31.7l5.41-52.55Z"/><path d="M2047.55,1791.7s-47.47,7.88-9.43,71.58c0,0,38.93,88.47-12.38,101.74,0,0,7.07-21.24,8.84-23s-1-30.6-1-30.6l-15.51-33.06s-18.7-31.29-20.56-36,4.37-40.57,4.37-40.57l22.84-10.07,20.1-2.71Z"/><path d="M2158.44,1650.06s-139.78,42.47-82.27,165.44l-16.53-15s-22.62-9.72-24.28-13.26-4.87-29.41-4.59-31.07,5.2-35,5.2-35l19.58-28,29.33-21.85Z"/><path d="M910.12,1177.54s78.74-358.22,369.81-437l-115,38.93-81,47.6-83.15,68.5-73.31,85.71-52.94,78.26-27.88,94,40.48,9.18Z"/><path d="M1527.19,2638.53,1517,2606.15a27.42,27.42,0,0,1,.89,6.92c0,37.38-77.63,67.68-173.4,67.68s-173.4-30.3-173.4-67.68c0-10.07,8.47-24.59,18.57-33.18l1.72-5.79a2.09,2.09,0,0,1-2.82-2.32L1229,2372.66a44.63,44.63,0,0,1,51.53-35c28.26,5,69.15,9.6,119.68,9.6-108.73,0-195.06-106.63-211.45-199.06-8.65-48.77-14.07-95.19-13.38-144.66.75-52.56,2.46-108.52,10.89-166.33a2.09,2.09,0,0,0-4-1.14c-22.2,50.76-92.27,233.07-29,385.72a1.4,1.4,0,0,0,.15.3l43,70.9a2.56,2.56,0,0,1,.24.56l4.42,17a62.9,62.9,0,0,1-1.35,36.2l-4.83,14.12a2.11,2.11,0,0,1-1.14,1.24l-26.61,11.66a2.06,2.06,0,0,1-1.07.16l-21.94-2.52a2.1,2.1,0,0,0-2.27,2.61l7.71,29.28a1.59,1.59,0,0,1,.06.38l3.63,49.69a2.11,2.11,0,0,1-.08.75l-14.6,49.1-.06.26-24.2,149.68a2.1,2.1,0,0,0,0,.79l6,26.41a2.08,2.08,0,0,0,1.18,1.45l59.31,26.68a2,2,0,0,0,.49.15l69,12.26.26,0,84.09,4h.26l60.19-4.53.24,0,83.39-16a1.05,1.05,0,0,0,.24-.06l40.42-13a2.09,2.09,0,0,0,1.43-1.73l6.33-50.94"/><path d="M1918.06,2248.79s-59.53,81.86-149.77,94c0,0,23,15,91.12-2.65l4.42-20.35,8.85-16.81,10.48-10.21"/></g></g><g id="Base_Body_V3" data-name="Base Body V3"><path class="cls-4-46" d="M1124.34,2330.45s65.27,121.25,0,185.71c-26,25.66-63.7,40.75-100.54,44.76-169.74,18.5-211.9-213.21-212.25-327.21-1.19-384.43,268.87-552.24,268.87-552.24"/><path class="cls-4-46" d="M1188.61,1822.33c-25.84,55.2-43,113.78-52.34,173.17-9.26,58.83-13.91,121.32.77,179.71,4.69,18.63,10.62,36.6,19.91,53.7,18.31,33.72,51.4,65.64,48.8,105.78-2.14,33.08-31.85,46-64.61,36.29"/><path class="cls-4-46" d="M1875.87,1822.33s102.57,98.45,91,287.14c0,0-3.62,117-95.28,193.58a25.6,25.6,0,0,0-9.21,18.23c-1.49,27.45-5.31,101.95-8.34,196,0,0,145.74-10.32,150.89,129,.65,17.51-12.29,33-30.87,37.34-61.79,14.38-217.56,40-453.39,7.15,0,0-171.42,71-375.08,8-21.91-6.79-35.72-26.6-33-47.6,3.64-28.11,11-75.14,26-147.9"/><path class="cls-4-46" d="M1142.45,2598.2s115.4-73.83,237.21-58.6,165.4,61,141,151.19"/><path class="cls-4-46" d="M1854.07,2517.33s-133.35-.74-200.62,45.13"/><line class="cls-4-46" x1="1511.37" y1="2594.76" x2="1564.29" y2="2347.39"/><path class="cls-4-46" d="M1962.82,2162.51c234.13,119.66,454.59-224.88,374-427.73-28.07-70.68-107.32-90.8-182.53-84.12,0,0-145.76,11-120.63,133.23"/><path class="cls-4-46" d="M2078,1825.24c-8.17-25.5-34.33-44.87-63.48-32.33-21.57,9.27-24.07,30.78-17,49.43a121.09,121.09,0,0,0,13,24.25c40.21,59.72,25.13,80.86,13.07,95.56"/><path class="cls-4-46" d="M1994,1809.24s-53-83.28-120-110.78"/><path class="cls-4-46" d="M910.12,1403.57c-18.06,15.13-39.93,24-63.49,24-62,0-112.3-61.34-112.3-137s50.28-137,112.3-137c23.56,0,45.43,8.85,63.49,24"/><path class="cls-5-46" d="M847.68,1226.92c24.22,0,43.86,28.83,43.86,64.39s-19.64,64.39-43.86,64.39"/><path d="M2129.2,1143.53a144,144,0,0,0-31.17-30.72,536.58,536.58,0,0,0-23-56.35c-32.82-68.83-79.79-130.63-139.61-183.69s-129.34-94.63-206.81-123.7c-80.17-30.08-165.32-45.33-253.08-45.33a723.09,723.09,0,0,0-219.4,33.67,674.64,674.64,0,0,0-187.55,93.24c-56,39.93-104,87.44-142.51,141.21-39.24,54.78-67.57,114.53-84.18,177.58a5.75,5.75,0,0,0,11.12,2.93c16.26-61.69,44-120.17,82.41-173.82,37.78-52.73,84.83-99.34,139.84-138.54a663,663,0,0,1,184.36-91.64,711.53,711.53,0,0,1,215.91-33.13c86.38,0,170.17,15,249,44.6,76.14,28.57,144.52,69.46,203.22,121.54s104.7,112.6,136.85,180a522.14,522.14,0,0,1,24.57,61.08c1.7,1.17,3.39,2.41,5.06,3.7.85.67,1.71,1.35,2.55,2l.54.43c.91.76,1.82,1.54,2.72,2.34l.82.73c.88.79,1.76,1.59,2.63,2.42.22.2.43.42.65.63a141.8,141.8,0,0,1,14.69,16.6c21.6,28.51,34,65.55,34,101.63,0,40.38-11.31,77.31-31.91,104.43h0c-.65.86-1.31,1.7-2,2.53-.89,1.11-1.79,2.18-2.69,3.24l-1,1.09c-.6.69-1.2,1.36-1.81,2-.38.42-.77.83-1.16,1.25-.57.6-1.14,1.19-1.72,1.78-.39.4-.78.81-1.18,1.2-.91.9-1.83,1.8-2.76,2.66-20,109.66-76.83,202.64-167.34,272.26-54.72,42.09-120.47,74.65-195.41,96.79s-157.82,33.42-245.91,33.42c-73.58,0-145.3-7.85-213.16-23.33S1154,1714,1098,1684.31c-117.39-62.14-199.49-151.36-237.44-258a5.75,5.75,0,0,0-10.83,3.85c38.92,109.43,122.91,200.84,242.89,264.35,56.87,30.1,120.69,53.35,189.67,69.09,68.7,15.67,141.28,23.62,215.72,23.62,89.2,0,173-11.4,249.17-33.89,76.31-22.54,143.31-55.75,199.16-98.7,91.16-70.12,149-163.31,170.49-273.08a136.34,136.34,0,0,0,12.27-13.43c23.68-29.62,36.73-70.49,36.73-115.08C2165.83,1214.15,2152.48,1174.25,2129.2,1143.53Z"/></g><defs><style>.cls-1-186,.cls-1-1861-186,.cls-7-186,.cls-8-186,.cls-9-186{fill:none;}.cls-2-186{fill:#201d1d;}.cls-3-186{fill:#fff;}.cls-1-1861-186,.cls-1-1862-186,.cls-1-1863-186,.cls-4-186,.cls-5-186,.cls-7-186,.cls-8-186,.cls-9-186{stroke:#000;}.cls-1-1862-186,.cls-4-186,.cls-5-186,.cls-7-186,.cls-8-186{stroke-linecap:round;}.cls-1-1861-186,.cls-1-1862-186,.cls-1-1863-186,.cls-4-186,.cls-5-186,.cls-7-186,.cls-9-186{stroke-miterlimit:10;}.cls-4-186,.cls-5-186,.cls-8-186,.cls-9-186{stroke-width:12px;}.cls-4-186{fill:url(#linear-gradient-186);}.cls-5-186{fill:url(#New_Pattern_3);}.cls-6-186{fill:#3f3f3f;}.cls-1-1861-186,.cls-1-1862-186,.cls-1-1863-186,.cls-7-186{stroke-width:13px;}.cls-8-186{stroke-linejoin:round;}.cls-1-1860-186{fill:#636363;}.cls-1-1862-186{fill:#32b767;}.cls-1-1863-186{fill:url(#linear-gradient-2-186);}.cls-1-1864-186{fill:url(#_6_dpi_50_);}.cls-1-1865-186,.cls-1-1866-186{opacity:0.28;}</style><linearGradient id="linear-gradient-186" x1="1449.55" y1="2165.6" x2="1449.55" y2="1681.61" gradientUnits="userSpaceOnUse"><stop offset="0" stop-color="#66c2ec"/><stop offset="0.62" stop-color="#7d76af"/></linearGradient><pattern id="New_Pattern_3" data-name="New Pattern 3" width="140" height="129.49" patternUnits="userSpaceOnUse" viewBox="0 0 140 129.5"><rect class="cls-1-186" width="140" height="129.49"/><path class="cls-3-186" d="M83.8,85.31c0,12-6,10.44-13.34,10.44S57.13,97.36,57.13,85.31s6-21.82,13.33-21.82S83.8,73.26,83.8,85.31Z"/><path d="M84.18,96.84c2.44-2.38,3.57-6,3.57-11.53,0-14.45-7.59-25.77-17.29-25.77S53.17,70.86,53.17,85.31c0,5.49,1.14,9.15,3.57,11.53,3.18,3.1,7.4,3,11.48,2.9,1.45,0,3,0,4.49,0,.72,0,1.44,0,2.16,0C78.24,99.78,81.56,99.4,84.18,96.84ZM68,91.83c-2.44.06-5,.12-5.76-.65-.36-.35-1.18-1.62-1.18-5.87,0-10.52,4.94-17.86,9.37-17.86s9.38,7.34,9.38,17.86c0,4.25-.83,5.52-1.19,5.87-.79.77-3.31.71-5.75.65-.79,0-1.61,0-2.44,0S68.82,91.81,68,91.83Z"/><path class="cls-3-186" d="M57.8,78.74a21.82,21.82,0,1,1,25.07-.47"/><path d="M57.8,82.7A3.93,3.93,0,0,1,55.59,82a25.77,25.77,0,1,1,29.62-.56,4,4,0,1,1-4.67-6.38A17.86,17.86,0,1,0,60,75.47,4,4,0,0,1,57.8,82.7Z"/><circle cx="60.64" cy="63.49" r="6.88"/><circle cx="79.97" cy="63.49" r="6.88"/><path d="M70,80.32a4,4,0,0,1-4-4V72.8a4,4,0,0,1,7.92,0v3.56A4,4,0,0,1,70,80.32Z"/><circle cx="34.11" cy="97.25" r="9.35"/><circle cx="10.28" cy="121.08" r="9.35"/><circle cx="105.89" cy="97.25" r="9.35"/><circle cx="130.65" cy="120.15" r="9.35"/><circle cx="105.89" cy="32.25" r="9.35"/><circle cx="130.65" cy="9.35" r="9.35"/><circle cx="34.11" cy="32.25" r="9.35"/><circle cx="10.28" cy="9.35" r="9.35"/><circle cx="10.28" cy="-8.42" r="9.35"/></pattern><linearGradient id="linear-gradient-2-186" x1="1641.77" y1="2153.06" x2="1641.77" y2="2284.81" gradientUnits="userSpaceOnUse"><stop offset="0" stop-color="#fff"/><stop offset="1"/></linearGradient><pattern id="_6_dpi_50_" data-name="6 dpi 50%" width="48" height="48" patternUnits="userSpaceOnUse" viewBox="0 0 48 48"><rect class="cls-1-186" width="48" height="48"/><circle class="cls-2-186" cx="24" cy="48" r="6"/><circle class="cls-2-186" cx="48" cy="48" r="6"/><circle class="cls-2-186" cx="24" cy="24" r="6"/><circle class="cls-2-186" cx="48" cy="24" r="6"/><circle class="cls-2-186" cx="36" cy="36" r="6"/><circle class="cls-2-186" cx="12" cy="36" r="6"/><circle class="cls-2-186" cx="36" cy="12" r="6"/><circle class="cls-2-186" cx="12" cy="12" r="6"/><circle class="cls-2-186" cy="48" r="6"/><circle class="cls-2-186" cy="24" r="6"/><circle class="cls-2-186" cx="24" r="6"/><circle class="cls-2-186" cx="48" r="6"/><circle class="cls-2-186" r="6"/></pattern></defs><path class="cls-4-186" d="M1188.61,1822.33a559.46,559.46,0,0,0-32.69,87.49,1.75,1.75,0,0,0,.1,1.19h0a25.66,25.66,0,0,1,2.23,15l-8.4,54.75c-1.3,6.32-5.55,11.75-12.23,16.22a1.7,1.7,0,0,0-.63.8l-1.76,4.76a1.89,1.89,0,0,0-.09.34c-6.09,40.67-9.71,82.92-6.06,124.23a1.67,1.67,0,0,0,1.31,1.49l12.06,2.72s393.76,82.17,818.43-7.8l.27-.08a22.17,22.17,0,0,1,2.36-.75,1.67,1.67,0,0,1,2.08,1.28h0c1.15-9.14,1.31-14.47,1.31-14.47,3.47-56.7-3.36-105.25-14.62-145.43l-.83-2.87a1.69,1.69,0,0,1,.32-1.53c23.81-28.68,74.48-46.89,77.55-48a1,1,0,0,0,.28-.13l2.22-1.3a1.68,1.68,0,0,0,.74-2c-3.88-11.35-10.79-25-22-41.66a121.09,121.09,0,0,1-13-24.25c-3.71-9.75-4.79-20.29-1.9-29.44a1.66,1.66,0,0,0-.19-1.42l-1.46-2.24s-52.85-83.1-119.75-110.69a1.74,1.74,0,0,1-.4-.23l-1.23-1a1.65,1.65,0,0,0-1.84-.17c-50.23,27.46-104.88,46.53-160.44,59.86-85.79,20.59-174.55,27.47-262.6,23.82-85.88-3.56-171.31-19.36-252.31-48.28a768.43,768.43,0,0,1-112.14-50.21,1.92,1.92,0,0,0-.33-.14l-1.77-.53a1.69,1.69,0,0,0-1.37.19c-8.36,5.29-97,63.17-168.63,182.27a1.68,1.68,0,0,1-.72.65l-12.73,6a1.59,1.59,0,0,0-.74.69l-30,52.93a2,2,0,0,0-.2.53c-5.51,29,51.63,63.16,130,79.2,61.11,12.52,116.14,9,140.39-6.86"/><path class="cls-5-186" d="M1188.61,1822.33a559.46,559.46,0,0,0-32.69,87.49,1.75,1.75,0,0,0,.1,1.19h0a25.66,25.66,0,0,1,2.23,15l-8.4,54.75c-1.3,6.32-5.55,11.75-12.23,16.22a1.7,1.7,0,0,0-.63.8l-1.76,4.76a1.89,1.89,0,0,0-.09.34c-6.09,40.67-9.71,82.92-6.06,124.23a1.67,1.67,0,0,0,1.31,1.49l12.06,2.72s393.76,82.17,818.43-7.8l.27-.08a22.17,22.17,0,0,1,2.36-.75,1.67,1.67,0,0,1,2.08,1.28h0c1.15-9.14,1.31-14.47,1.31-14.47,3.47-56.7-3.36-105.25-14.62-145.43l-.83-2.87a1.69,1.69,0,0,1,.32-1.53c23.81-28.68,74.48-46.89,77.55-48a1,1,0,0,0,.28-.13l2.22-1.3a1.68,1.68,0,0,0,.74-2c-3.88-11.35-10.79-25-22-41.66a121.09,121.09,0,0,1-13-24.25c-3.71-9.75-4.79-20.29-1.9-29.44a1.66,1.66,0,0,0-.19-1.42l-1.46-2.24s-52.85-83.1-119.75-110.69a1.74,1.74,0,0,1-.4-.23l-1.23-1a1.65,1.65,0,0,0-1.84-.17c-50.23,27.46-104.88,46.53-160.44,59.86-85.79,20.59-174.55,27.47-262.6,23.82-85.88-3.56-171.31-19.36-252.31-48.28a768.43,768.43,0,0,1-112.14-50.21,1.92,1.92,0,0,0-.33-.14l-1.77-.53a1.69,1.69,0,0,0-1.37.19c-8.36,5.29-97,63.17-168.63,182.27a1.68,1.68,0,0,1-.72.65l-12.73,6a1.59,1.59,0,0,0-.74.69l-30,52.93a2,2,0,0,0-.2.53c-5.51,29,51.63,63.16,130,79.2,61.11,12.52,116.14,9,140.39-6.86"/><path class="cls-6-186" d="M1511.81,2160.28s8.94-73.89,9.41-76.24,0-99.76,0-99.76l-9.41-86.62-23.06-71L1471.81,1785l-57.41-3.09-33-2.35,25.89,83.77,14.11,72,6.12,86.11-.47,60.71-6.59,53.18-4.27,23.68Z"/><path class="cls-6-186" d="M1697.34,1763.78l62.82-16.33,26.47,46.24,40.24,104.12,16.58,89.64v92.83l-5.64,61.64-85.35,10.73s9.11-104.14,9.11-105.55-3.09-86.78-3.09-86.78l-19.5-91.1-23.64-67.77Z"/><path class="cls-7-186" d="M1875.87,1822.33s50.19,48.17,76.41,141.71"/><path class="cls-8-186" d="M1129.19,2128.3a307.26,307.26,0,0,0,7.85,46.91c4.69,18.63,10.62,36.6,19.91,53.7,18.31,33.72,51.4,65.64,48.8,105.78-2.14,33.08-31.85,46-64.61,36.29"/><path class="cls-9-186" d="M1839.81,2141.92s46.58-220.07-81.33-400.65"/><path class="cls-9-186" d="M1747.29,2156.87s48.28-211.42-55.72-393.09"/><path class="cls-9-186" d="M1513.69,2163.57S1557.85,1970.43,1476,1785"/><path class="cls-9-186" d="M1376.57,1777.29c78.6,187.62,36,386.28,36,386.28"/><path class="cls-9-186" d="M2005,1864.28s-49,15.88-71,41.29"/><path class="cls-8-186" d="M1155.22,1914c-5.94,29-64.64,44.74-136.33,30s-120.37-42.61-114.43-71.62"/><path class="cls-1-1860-186" d="M1944,2286.64a508.53,508.53,0,0,1,15-58.33c-62.21,18.81-126.8,27.25-192,35.69-152,18-301,17-452,3-46.93-4-92.86-8-139.78-19.95,17.58,26.32,37.68,52.84,35.63,84.46-2.15,33.08-31.85,46-64.61,36.29l1.31,4c5.58,17.81,10.41,39.24,10.86,61l8.68,4.2,1.65.45q13.92,3.82,28,7.06c54.09,12.43,109.37,18.37,164.7,21.68,56.35,3.36,113.17,7.8,169.51,2.05,6.74-.69,13.6-1.67,19.63-4.76s11.16-8.67,12-15.39c59.61,11.23,119.71,19.23,180.49,18.1,52.93-1,102.31-12.16,153.76-22.59,14.82-3,37.63-9.83,39.32-28,2-21.47-1.22-43.21-.23-64.79A425.25,425.25,0,0,1,1944,2286.64Z"/><path class="cls-6-186" d="M1966.12,2120.28c-424.73,90-818.57,7.83-818.57,7.83l-13.27-3a308.5,308.5,0,0,0,7.85,46.91c4.69,18.63,10.62,36.6,19.91,53.7,3.89,7.16,8.44,14.23,13.18,21.32,46.92,12,92.85,16,139.78,19.95,151,14,300,15,452-3,65.18-8.44,129.77-16.88,192-35.69.52-1.6,1-3.21,1.59-4.8,28.23-11,26.06-37.43,30.4-76.32S1966.12,2120.28,1966.12,2120.28Z"/><path class="cls-1-1861-186" d="M1955.47,2226.69a494.5,494.5,0,0,0-16.55,63.13,426.55,426.55,0,0,0-8.07,64.18c-1,21.58,2.22,43.32.23,64.79-1.68,18.22-24.5,25.05-39.32,28.05-51.45,10.43-100.82,21.6-153.75,22.59-60.79,1.13-120.89-6.87-180.5-18.1-.86,6.72-6,12.3-12,15.39s-12.89,4.07-19.63,4.76c-56.35,5.75-113.16,1.31-169.51-2.05-55.34-3.31-110.61-9.25-164.71-21.68q-14.07-3.24-28-7.06l-1.64-.45-8.68-4.2c-.46-21.77-5.28-43.2-10.87-61l-1.31-4.05c32.76,9.68,62.47-3.21,64.61-36.29,2.6-40.14-30.49-72.06-48.8-105.78-9.29-17.1-15.22-35.07-19.91-53.7a307.26,307.26,0,0,1-7.85-46.91l13.26,3s393.84,82.19,818.57-7.83c0,0,29.2-12,24.86,26.91s-2.17,65.31-30.41,76.32c0,0-274.38,101.27-787.68,18.34"/><path class="cls-1-1862-186" d="M1557.15,2451.25s8.82-69,28.37-99.81"/><path class="cls-1-1863-186" d="M1576,2159.05c41.66-.82,85-2.7,129.48-5.91a29.29,29.29,0,0,1,31.43,30l-1.84,71.59a24.24,24.24,0,0,1-22.25,23.56c-43,3.53-90.82,6-143.38,6.57a22.51,22.51,0,0,1-22.8-22.5v-73.37A29.91,29.91,0,0,1,1576,2159.05Z"/><path class="cls-1-1864-186" d="M1944,2286.64a508.53,508.53,0,0,1,15-58.33c-62.21,18.81-126.8,27.25-192,35.69-152,18-301,17-452,3-46.93-4-92.86-8-139.78-19.95,17.58,26.32,37.68,52.84,35.63,84.46-2.15,33.08-31.85,46-64.61,36.29l1.31,4c5.58,17.81,10.41,39.24,10.86,61l8.68,4.2,1.65.45q13.92,3.82,28,7.06c54.09,12.43,109.37,18.37,164.7,21.68,56.35,3.36,113.17,7.8,169.51,2.05,6.74-.69,13.6-1.67,19.63-4.76s11.16-8.67,12-15.39c59.61,11.23,119.71,19.23,180.49,18.1,52.93-1,102.31-12.16,153.76-22.59,14.82-3,37.63-9.83,39.32-28,2-21.47-1.22-43.21-.23-64.79A425.25,425.25,0,0,1,1944,2286.64Z"/><g class="cls-1-1865-186"><path d="M1135.81,1711.81S984.2,1856.8,966,1992.36l-3.38,3.23-43.05-16.08s-37.37-23.32-38.78-24.68-13.36-19.6-13.36-19.6l7.16-24.16,19.36-34.22,19.2-13.63,14.58-25.1,48.49-63.27s31.29-33.28,32.53-34.49,44.64-36.85,44.82-38.14,25.36-19.65,25.36-19.65Z"/><path d="M1188.61,1822.33s-23.06,56.22-24.27,59.7-6.69,33.21-6.46,34.26-.18,21,0,22.1-7.87,41.33-7.94,41.84-14.7,22.28-14.7,22.28-3.87,28.68-4.27,32.52-2.39,57.6-1.77,60.07-.11,32-.11,32l49.41,10.69,13.12,2.1S1168,2052.85,1188.61,1822.33Z"/><path d="M1376.57,1777.29l16.88,61.79,25.7,84.53,4,69.06-2.61,114.52-7.94,56.38-20.12-2.44s31.16-221.89-36.85-388.9Z"/><path d="M1699.6,1770.24l20,61,30.07,83.28,7.11,68.82,2.41,114.52-5.63,56.68-20.71-1.52s22.06-223.09-55-386.84Z"/><path d="M1171.77,2252.69l27.35,32.12,6.78,33.35-3.1,30.59-16.87,25.37-38.38-2.27,5.8,34.54,4.32,31.76,54.66,16.73,30.36-195.19s-25-47.19-12.29-113l-96.12-17.29,1.65,36.15,17.42,53.34Z"/></g><path class="cls-1-1866-186" d="M1557.51,2451.33l40.21,7c-.32,0-15.66-87.23-8-109.82l-18.43,36.26-8.48,44.92Z"/><defs><style>.cls-1-295{fill:#333;}.cls-2-295{opacity:0.18;}.cls-3-295{fill:none;stroke:#000;stroke-linecap:round;stroke-miterlimit:10;stroke-width:13px;}</style></defs><g id="Layer_361_copy" data-name="Layer 361 copy"><path class="cls-1-295" d="M2289.26,796.56c0-113-91.6-204.59-204.59-204.59-110.86,0-201.1,88.18-204.46,198.23,12.16,12.35,24,24.89,38.79,35.8,13,9,29,13,39,25,37,43,77,75,110,123,5.94,8.63,11.44,18,17.11,27.14C2197.9,1000.9,2289.26,909.4,2289.26,796.56Z"/><path class="cls-1-295" d="M1958,851c-10-12-26-16-39-25-14.75-10.91-26.63-23.45-38.79-35.8,0,1.14-.08,2.29-.09,3.45l-89.59-49-92.18-35.94-89.5-19.7-73.35-9.83-79.29-5.72-80.93,7.57L1283.9,700.5l-39.42,10.7-59.75,17.88-78.22,33.37-42.31,28.89c-31-93.24-118.89-160.49-222.53-160.49-129.49,0-234.45,105-234.45,234.45,0,123.67,95.76,225,217.17,233.81l-11.13,50.69-.62,3.76s16.81-5.72,32.68-6.48l-2,41.65-1.65,74.33-5.62,64.76L847.68,1410l6,25.9-3.76-.65C849,1482,869.78,1523.73,903,1555c14,12,36,21,53,10,9-6,21-5,28-14,16.15,17,36.5,24.71,58.37,27.8l-.61-3.68s15.27-1.82,17.25-2.64,23.38-19.77,25.1-21.94,15.91-31.86,15.91-31.86l-2.68-34.88s-18.34-48.83-16.17-52.93-9.21-42.69-9.21-42.69l-12.58-70.92-7.75-71.79,4.15-67.93s16.74-35.08,18-36.48,47.3-26.92,47.3-26.92,53.51-13,55.9-13.48,113.11-22.57,113.11-22.57,91.79-11,94-12.12,86.22-5,86.22-5l139-12.51,136.27,4.25s76,3.84,77.12,1.49,106.36,7.28,106.36,7.28L2034.35,1073l53.11,7,9.47-1.09,14.38-15.3v-21.84l-30-40.66c1.12,0,2.24,0,3.36,0h.44c-5.67-9.15-11.17-18.51-17.11-27.14C2035,926,1995,894,1958,851Z"/><path class="cls-1-295" d="M810.1,1422.15a117.47,117.47,0,0,0,32.5,6.62l4.69-.64,15.35,60.63-30.36-19-17.13-17.46-6.87-24-1-7.32Z"/><path class="cls-2-295" d="M812.77,1427.55a117.47,117.47,0,0,0,32.5,6.62l4.69-.64,15.35,60.63-30.36-19-17.13-17.46-6.87-24-1-7.32Z"/><path class="cls-2-295" d="M824.49,1099.66,821,1113l-5.07,31.48s-13,12.18,2.86,7.26a89.73,89.73,0,0,1,29.9-3.88l-7,49.31v84.22l-3.76,25.05,5.41,46.47.61,42.91,8.93,36.63-2.9,1.11c-1.5,47.38,19.4,89.81,53,121.47,10.81,9.27,53,10,76.89-5.23-69.77,18.64-76-114.66-93.11-229.25-12.69-85.08-8.34-160.31,8.7-226.49-15.81,1-30.66,2-46.48,5A100.91,100.91,0,0,1,824.49,1099.66Z"/><path class="cls-2-295" d="M2084.67,592c-110.86,0-201.1,88.18-204.46,198.23,12.16,12.35,24,24.89,38.79,35.8,13,9,29,13,39,25,37,43,77,75,110,123,5.94,8.63,11.44,18,17.11,27.14,112.79-.24,204.15-91.74,204.15-204.58C2289.26,683.56,2197.66,592,2084.67,592Zm45.43,306.77c-76.94,0-139.31-63.77-139.31-142.44s62.37-142.44,139.31-142.44,139.31,63.77,139.31,142.44S2207,898.74,2130.1,898.74Z"/><path class="cls-2-295" d="M943.11,1185.94c0,.06-16.47,122.56-1.73,205.3s27,127.13,27,127.13l21.79,38.94,36.58,18.91c7.62,3.91,27-5.94,34.19-8.73,18.89-7.29,25.61-20.06,36.35-35.78-16.47,15.88-44.19,19.86-63,6.83-17.52-12.15-24.61-34.46-31.27-53.68-17.61-50.82-29.17-103.47-38.66-156.33-4.57-25.42-8.79-50.9-13.14-76.36C947.6,1230.66,940.17,1207.88,943.11,1185.94Z"/><path class="cls-2-295" d="M1535.5,679.2c-54.51-5.72-141.49-.08-141.49-.08s-67.39,9.16-68.26,9.32-101.58,28.84-101.58,28.84l-48.39,17.58-90.23,43.32-21.43,14c4.86,11.52,9.42,23.34,11.63,35.4C1221.44,714.74,1415,672.63,1535.5,679.2Z"/><path class="cls-3-295" d="M850.4,1144.45c-11.55,50-16.52,111.13-15.26,162.51A675,675,0,0,0,852,1440.21l2.84,12.67q3.5,15.36,7.49,30.63c9.65,37,30.45,87.53,76.62,84.8a63.16,63.16,0,0,0,41-18.54"/><path class="cls-3-295" d="M1065.46,790.69c110.18-71.31,248-114.68,397.83-114.68,159.37,0,315.66,46.63,440.08,131.3,94.1,64,163.84,145.61,202.28,235.14,21.28,43.14-23.76,37.27-23.76,37.27-77-11.68-186.85-24.2-319.07-27.73a2583.28,2583.28,0,0,0-338,13.4c-90.57,9.48-181.6,19-270.28,40.44-35.8,8.66-72.53,14.32-90.67,50.05-18,35.41-13.93,78.23-9.73,116.35,4.85,44.1,14.07,87.56,24.55,130.63,9.4,38.65,29,83,20,123.2a65.54,65.54,0,0,1-43.32,47.73c-35.69,11.65-70.4-10.5-83-44.22-28.86-77.14-39.64-160.6-36.14-242.68"/><path class="cls-3-295" d="M811.62,1160.36a447.69,447.69,0,0,1,12.26-58.1"/><path class="cls-3-295" d="M861.2,1486.85c-55.8-4.58-55.41-64-55.41-64"/><path class="cls-3-295" d="M824.64,1099.14c-121.53-8.72-217.42-110.08-217.42-233.84,0-129.48,105-234.45,234.45-234.45s234.44,105,234.44,234.45-105,234.45-234.44,234.45q-8.59,0-17-.61"/><path class="cls-2-295" d="M843.26,630.85c-128.6,0-232.85,103.69-232.85,231.59S714.66,1094,843.26,1094s232.85-103.68,232.85-231.59S971.86,630.85,843.26,630.85ZM882.36,1017c-98,0-177.38-81.2-177.38-181.37S784.4,654.3,882.36,654.3s177.39,81.2,177.39,181.36S980.33,1017,882.36,1017Z"/><path class="cls-3-295" d="M1880.26,788c4.49-109,94.29-196,204.41-196,113,0,204.59,91.59,204.59,204.59s-91.6,204.58-204.59,204.58"/></g><defs><style>.cls-1-257,.cls-2-257{fill:#efefef;}.cls-1-257,.cls-2-257,.cls-3-257,.cls-6-257,.cls-7-257{stroke:#000;stroke-width:13px;}.cls-1-257,.cls-2-257,.cls-7-257{stroke-linecap:round;}.cls-1-257,.cls-6-257,.cls-7-257{stroke-linejoin:round;}.cls-2-257,.cls-3-257{stroke-miterlimit:10;}.cls-3-257{fill:#232323;}.cls-4-257{opacity:0.15;}.cls-5-257{opacity:0.18;}.cls-6-257,.cls-7-257{fill:none;}</style></defs><g id="ANGRY_HUMAN" data-name="ANGRY HUMAN"><path class="cls-1-257" d="M1334.19,1109.35c1.47-.71,2.94-1.39,4.43-2.06C1337.13,1108,1335.66,1108.64,1334.19,1109.35Z"/><path class="cls-1-257" d="M1344.91,1104.6c1.61-.64,3.23-1.27,4.86-1.87C1348.14,1103.33,1346.52,1104,1344.91,1104.6Z"/><path class="cls-1-257" d="M1340,1106.68c1.26-.55,2.53-1.09,3.8-1.61C1342.52,1105.59,1341.25,1106.13,1340,1106.68Z"/><path class="cls-1-257" d="M1314.44,1120.59q1.82-1.2,3.66-2.34Q1316.26,1119.39,1314.44,1120.59Z"/><path class="cls-1-257" d="M1318.85,1117.77q2.19-1.35,4.43-2.64Q1321,1116.42,1318.85,1117.77Z"/><path class="cls-1-257" d="M1329.25,1111.85q2.3-1.21,4.63-2.35Q1331.54,1110.64,1329.25,1111.85Z"/><path class="cls-1-257" d="M1350.85,1102.35c1.32-.47,2.64-.93,4-1.38C1353.49,1101.42,1352.17,1101.88,1350.85,1102.35Z"/><path class="cls-1-257" d="M1309.63,1123.88c1.17-.83,2.36-1.65,3.55-2.45C1312,1122.23,1310.8,1123.05,1309.63,1123.88Z"/><path class="cls-1-257" d="M1324.44,1114.47c1.17-.66,2.34-1.3,3.53-1.94C1326.78,1113.17,1325.61,1113.81,1324.44,1114.47Z"/><path class="cls-1-257" d="M1397.54,1092.64c1.42-.09,2.85-.17,4.27-.23C1400.39,1092.47,1399,1092.55,1397.54,1092.64Z"/><path class="cls-1-257" d="M1390.82,1093.2c1.78-.19,3.58-.34,5.38-.48C1394.4,1092.86,1392.6,1093,1390.82,1093.2Z"/><path class="cls-1-257" d="M1385.37,1093.87q2.18-.3,4.38-.54Q1387.55,1093.57,1385.37,1093.87Z"/><path class="cls-1-257" d="M1403.38,1092.35c1.84-.06,3.67-.1,5.52-.1C1407.05,1092.25,1405.22,1092.29,1403.38,1092.35Z"/><path class="cls-1-257" d="M1379.24,1094.82c1.52-.26,3-.5,4.57-.73C1382.28,1094.32,1380.76,1094.56,1379.24,1094.82Z"/><path class="cls-1-257" d="M1356.28,1100.5c1.5-.49,3-1,4.53-1.4C1359.29,1099.55,1357.78,1100,1356.28,1100.5Z"/><path class="cls-1-257" d="M1367.85,1097.22c1.33-.33,2.67-.64,4-.94C1370.52,1096.58,1369.18,1096.89,1367.85,1097.22Z"/><path class="cls-1-257" d="M1361.35,1098.94q2.52-.72,5.09-1.37Q1363.88,1098.22,1361.35,1098.94Z"/><path class="cls-1-257" d="M1373.24,1096q2.61-.56,5.23-1Q1375.85,1095.43,1373.24,1096Z"/><path class="cls-1-257" d="M1279.69,1150.79c.92-1,1.85-2.07,2.79-3.08C1281.54,1148.72,1280.61,1149.75,1279.69,1150.79Z"/><path class="cls-1-257" d="M1256.33,1184.46c.81-1.53,1.65-3,2.5-4.54C1258,1181.42,1257.14,1182.93,1256.33,1184.46Z"/><path class="cls-1-257" d="M1265.16,1169.67q1.44-2.14,2.94-4.25Q1266.6,1167.52,1265.16,1169.67Z"/><path class="cls-1-257" d="M1262.33,1174.08q1.2-1.92,2.44-3.8Q1263.53,1172.16,1262.33,1174.08Z"/><path class="cls-1-257" d="M1579.54,1297.71c-230.31,3.67-325-105-325-105l1.62-7.84a175.94,175.94,0,0,0-20.45,82.64c0,96.76,77.55,175.21,173.21,175.21,87.37,0,159.62-65.44,171.49-150.51Z"/><path class="cls-1-257" d="M1259.37,1179q1.07-1.83,2.16-3.63Q1260.44,1177.17,1259.37,1179Z"/><path class="cls-1-257" d="M1582,1272.92c.06-1.81.1-3.63.1-5.45C1582.12,1269.29,1582.08,1271.11,1582,1272.92Z"/><path class="cls-1-257" d="M1580.59,1290.75c.22-1.65.42-3.31.59-5C1581,1287.44,1580.81,1289.1,1580.59,1290.75Z"/><path class="cls-1-257" d="M1581.21,1285.44q.27-2.65.45-5.34Q1581.48,1282.79,1581.21,1285.44Z"/><path class="cls-1-257" d="M1581.76,1278.55c.08-1.34.15-2.69.2-4C1581.91,1275.86,1581.84,1277.21,1581.76,1278.55Z"/><path class="cls-1-257" d="M1304.75,1127.46q2-1.55,4.13-3Q1306.8,1125.91,1304.75,1127.46Z"/><path class="cls-1-257" d="M1295.5,1135q1.95-1.69,3.93-3.34Q1297.45,1133.33,1295.5,1135Z"/><path class="cls-1-257" d="M1287.67,1142.34c1-.95,1.93-1.89,2.92-2.82C1289.6,1140.45,1288.63,1141.39,1287.67,1142.34Z"/><path class="cls-1-257" d="M1291.67,1138.5q1.78-1.68,3.63-3.29Q1293.46,1136.82,1291.67,1138.5Z"/><path class="cls-1-257" d="M1300.56,1130.77c1-.84,2.08-1.67,3.14-2.49C1302.64,1129.1,1301.6,1129.93,1300.56,1130.77Z"/><path class="cls-1-257" d="M1268.91,1164.29c.78-1.09,1.57-2.16,2.38-3.22C1270.48,1162.13,1269.69,1163.2,1268.91,1164.29Z"/><path class="cls-1-257" d="M1286.8,1143.2q-1.82,1.83-3.57,3.69Q1285,1145,1286.8,1143.2Z"/><path class="cls-1-257" d="M1272.14,1159.94c1-1.36,2.12-2.72,3.2-4C1274.26,1157.22,1273.19,1158.58,1272.14,1159.94Z"/><path class="cls-1-257" d="M1275.73,1155.43c1-1.19,2-2.35,3-3.51C1277.7,1153.08,1276.71,1154.24,1275.73,1155.43Z"/><path class="cls-2-257" d="M2121.91,1144.73l.22.28Z"/><path class="cls-2-257" d="M2119.51,1141.78l.52.63Z"/><path class="cls-2-257" d="M2123.77,1147.13l.53.7Z"/><path class="cls-2-257" d="M2127.88,1152.77c.14.21.28.42.43.62C2128.16,1153.19,2128,1153,2127.88,1152.77Z"/><path class="cls-2-257" d="M2125.77,1149.81l.36.5Z"/><path class="cls-2-257" d="M2117.49,1139.42c.18.19.34.39.51.59C2117.83,1139.81,2117.67,1139.61,2117.49,1139.42Z"/><path class="cls-2-257" d="M2101,1123.29l.63.52Z"/><path class="cls-2-257" d="M2103.6,1125.52l.19.17Z"/><path class="cls-2-257" d="M2129.65,1155.38l.48.72Z"/><path class="cls-2-257" d="M2112.91,1134.39c.19.21.39.41.59.62C2113.3,1134.8,2113.1,1134.6,2112.91,1134.39Z"/><path class="cls-2-257" d="M2115.22,1136.86c.1.12.21.23.31.34C2115.43,1137.09,2115.32,1137,2115.22,1136.86Z"/><path class="cls-2-257" d="M2108.21,1129.7l.54.52Z"/><path class="cls-2-257" d="M2106,1127.61l.6.54Z"/><path class="cls-2-257" d="M2144.73,1183.26c.07.18.14.36.22.53C2144.87,1183.62,2144.8,1183.44,2144.73,1183.26Z"/><path class="cls-2-257" d="M2143.13,1179.67l.33.73Z"/><path class="cls-2-257" d="M2146,1186.22c.12.28.23.56.34.84C2146.19,1186.78,2146.08,1186.5,2146,1186.22Z"/><path class="cls-2-257" d="M2131.8,1158.67s0,0,0,.08S2131.81,1158.7,2131.8,1158.67Z"/><path class="cls-2-257" d="M2141.73,1176.66l.37.78Z"/><path class="cls-2-257" d="M2147.3,1189.6l.18.44Z"/><path class="cls-2-257" d="M2111.19,1132.63l-.36-.38Z"/><path class="cls-2-257" d="M2133.42,1161.3l.45.75Z"/><path class="cls-2-257" d="M2135.12,1164.16l.37.62Z"/><path class="cls-2-257" d="M2138.51,1170.26l.42.79Z"/><path class="cls-2-257" d="M2137,1167.46l.33.6Z"/><path class="cls-2-257" d="M2140.24,1173.62l.12.23Z"/><path class="cls-2-257" d="M2088,1114.05l.68.41Z"/><path class="cls-2-257" d="M2047.92,1100l.57.06Z"/><path class="cls-2-257" d="M2050.69,1100.3l.78.11Z"/><path class="cls-2-257" d="M2098.66,1121.46l.48.38Z"/><path class="cls-2-257" d="M2056.87,1101.38l.73.16Z"/><path class="cls-2-257" d="M2053.92,1100.81l.27,0Z"/><path class="cls-2-257" d="M2041.57,1099.52l.79,0Z"/><path class="cls-2-257" d="M1919,1271.88c-.15-1.86-.27-3.74-.37-5.62C1918.73,1268.14,1918.85,1270,1919,1271.88Z"/><path class="cls-2-257" d="M1918.33,1258.72c0-1.9-.08-3.8-.08-5.71C1918.25,1254.92,1918.28,1256.82,1918.33,1258.72Z"/><path class="cls-2-257" d="M2147.53,1190.17l-2.06,2.5c-31.54,77.71-224.94,85.3-224.94,85.3l-.94.11c7.62,70.64,47.88,129.23,119.2,129.23,66.57,0,120.54-64,120.54-154.3A177.51,177.51,0,0,0,2147.53,1190.17Z"/><path class="cls-2-257" d="M1919.52,1277.46c-.19-1.85-.37-3.7-.52-5.57C1919.15,1273.76,1919.33,1275.61,1919.52,1277.46Z"/><path class="cls-2-257" d="M1918.57,1265.22c-.09-1.81-.17-3.63-.22-5.45C1918.4,1261.59,1918.48,1263.41,1918.57,1265.22Z"/><path class="cls-2-257" d="M2059.67,1102l.69.17Z"/><path class="cls-2-257" d="M2044.53,1099.67l.66,0Z"/><path class="cls-2-257" d="M2063,1102.9l.45.13Z"/><path class="cls-2-257" d="M2091,1116l0,0Z"/><path class="cls-2-257" d="M2082.61,1110.94l.51.27Z"/><path class="cls-2-257" d="M2093.38,1117.57l.66.46Z"/><path class="cls-2-257" d="M2095.86,1119.35l.55.39Z"/><path class="cls-2-257" d="M2079.9,1109.53l.72.36Z"/><path class="cls-2-257" d="M2085.53,1112.57l.58.34Z"/><path class="cls-2-257" d="M2077.4,1108.31l.28.13Z"/><path class="cls-2-257" d="M2068.59,1104.69l.41.15Z"/><path class="cls-2-257" d="M2065.63,1103.7l.76.24Z"/><path class="cls-2-257" d="M2071.56,1105.8l.66.27Z"/><path class="cls-2-257" d="M2074.2,1106.89l.69.29Z"/><path class="cls-3-257" d="M1499.94,1295.72c-1.13,49.17-18.9,88.24-40.66,88.24-36.24,0-17.56-41.38-17.56-92.85,0-1.79,0-3.57-.08-5.34"/><path class="cls-3-257" d="M2081.54,1242.87c1.19,5.37,2.17,11,2.89,16.8,5.26,42.09-4.61,78-22.06,80.16-28.11,3.52-17.85-32.13-23.11-74.22"/><path class="cls-4-257" d="M1981.8,1254.76h2.94l-3-.12c0-.37,0-.74,0-1.11s0-.75,0-1.12l3-.11h-2.94c2.92-69,32.43-130.24,87.37-147.63a96.19,96.19,0,0,0-30.38-4.92c-76.12,0-116.86,70.93-120.29,152.66h-.1c0,.37,0,.74,0,1.11s0,.74,0,1.11h.1c3.43,81.74,44.17,152.67,120.29,152.67a96.19,96.19,0,0,0,30.38-4.92C2014.23,1385,1984.72,1323.74,1981.8,1254.76Z"/><path class="cls-5-257" d="M1276,1153.56S1132.63,1355,1376.16,1441.83c0,0-143.73,5.17-163.45-142C1212.71,1299.87,1205.71,1203.08,1276,1153.56Z"/><path class="cls-5-257" d="M1953.91,1145.73s-128.54,184.84,89.78,264.47c0,0-128.85,4.74-146.53-130.24C1897.16,1280,1890.88,1191.16,1953.91,1145.73Z"/><path class="cls-6-257" d="M1254.52,1192.67s94.71,108.71,325,105l1-6.32a179.85,179.85,0,0,0,1.6-23.92c0-96.77-77.55-175.22-173.22-175.22-66.11,0-123.57,37.47-152.76,92.55Z"/><path class="cls-7-257" d="M2147.53,1190.17c-19.43-50.92-60.82-90.7-108.74-90.7-87,0-120.54,86.2-120.54,153.54a235.68,235.68,0,0,0,1.33,25.07l1-.11s193.4-7.59,224.94-85.3Z"/><path class="cls-5-257" d="M1299,1271.76c0-.91,0-1.81,0-2.72h0c0-.52,0-1,0-1.57s0-1,0-1.57h0c0-.91,0-1.81,0-2.73,0-83.72,61-153.38,141.56-168.06a176.42,176.42,0,0,0-31.65-2.86c-95.66,0-173.21,76.53-173.21,170.92,0,.91,0,1.82,0,2.72h0c0,.52,0,1,0,1.57s0,1,0,1.57h0c0,.91,0,1.81,0,2.72,0,94.4,77.55,170.92,173.21,170.92a176.42,176.42,0,0,0,31.65-2.86C1360,1425.15,1299,1355.49,1299,1271.76Z"/></g><defs><style>.cls-1-447{opacity:0.18;}.cls-2-447{fill:none;stroke:#000;stroke-linecap:round;stroke-linejoin:round;stroke-width:12px;}</style></defs><g id="BUTTON_NOSE_copy" data-name="BUTTON NOSE copy"><path class="cls-1-447" d="M1791.44,1400.59c-70.86,0-128.29-24.49-128.29-54.7,0-7.35,3.41-14.37,9.57-20.77-23.71,9.93-38.43,23.75-38.43,39,0,30.21,57.44,54.71,128.29,54.71,53.61,0,99.53-14,118.71-33.94C1858.15,1394.61,1826.43,1400.59,1791.44,1400.59Z"/><ellipse class="cls-2-447" cx="1757.79" cy="1359.22" rx="128.29" ry="54.71"/></g><defs><style>.cls-1-439{fill:#db7c83;}.cls-2-439{fill:#b73359;}.cls-3-439{fill:#fff;}.cls-4-439,.cls-5-439{fill:none;stroke:#000;stroke-miterlimit:10;stroke-width:14px;}.cls-5-439{stroke-linecap:round;}.cls-6-439{opacity:0.24;}</style></defs><g id="Mouth_Aw"><path class="cls-1-439" d="M1617.91,1516.14l-14.12,14.67-14.69,20.46-10.22,20.31-5.57,23.42,4.24,17-1.27,12.21L1591,1635.6l13.85-14.32,26.11-23.16s31.84-6.4,32.64-6.32,41.17,1.08,41.17,1.08,10.32,4.44,12.86,2.89,26.57-6.87,26.57-6.87,26.11-1.4,28,0,28.61,6.68,30.11,7.56,30.42,15.55,30.42,15.55l22.18,19.4,17.2-3.9s16.62-12,17.83-13.66,16.55-15.11,17.25-17,6.35-29.29,6.35-29.29l-.54-25.19-7.49-19.86-13.9-18.1-9.87-2.47s-3.07,10.11-2.87,11.37-11,12.18-11,12.18l-21.38,5.3s-15.13-3.62-15.92-4.07-13.53-11.81-13.53-11.81l-12.35,12.14-22.31,5.47s-11.85-4-12.89-4.32-16.51-14.89-16.51-14.89l-11,11.52-13.55,6-18.52-.93-16.54-10-8.75-6.52-10,13.36-21.43,3.5-17.66-3.9Z"/><path class="cls-2-439" d="M1607.38,1617c23.1-20.4,58.62-30.3,91.65-25.55,6.18.89,12.36,2.26,18.61,2,5-.24,9.91-1.56,14.8-2.58a130.42,130.42,0,0,1,68.44,4.3c21.5,7.48,40,20.87,52,37.62-4.27,5.8-14.34,5.31-22.3,4-8.93-1.5-17.81-3.16-26.77-4.51a378.32,378.32,0,0,0-135.91,4.47c-12.46,2.73-24.81,6.1-37.61,7.22-10.85.95-24.33.5-33.83-4.62C1588,1634.7,1602.5,1621.33,1607.38,1617Z"/><path class="cls-3-439" d="M1634.92,1525.28c6.21,2.77,13.42,3.4,20.44,3.76,4.93.26,9.94.4,14.72-.65s9.34-3.43,11.59-7.12c1.31-2.16,2.91-5.23,5.7-4.63a5.56,5.56,0,0,1,2.62,1.75c7.46,7.3,19,11.55,30.38,11.25s22.59-5.16,29.48-12.83c6.62,4.24,13.62,8.24,21.51,10.45s16.86,2.46,24.32-.64c5.57-2.32,9.88-6.28,14.88-9.37a6.18,6.18,0,0,1,3.44-1.19,6.52,6.52,0,0,1,3,1.2c6.12,3.79,12.35,7.56,19.36,10s15,3.55,22.28,1.8c13.13-3.15,21.28-15,22-26.42a11.48,11.48,0,0,0-1.07-6.45c-1.32-2.36-3.89-4-6.44-5.52-7.65-4.46-16-8.06-24.21-11.66-13-5.67-26.18-11.38-40.26-14.87-24.57-6.1-50.93-5.16-76.11-1.23-37.73,5.9-75.29,19.09-102.36,42.54-3.78,3.27-7.3,5.31-5.5,10.09C1626.3,1519.79,1630.35,1523.25,1634.92,1525.28Z"/><path class="cls-4-439" d="M1569.85,1603.65c1.54,16.84,10.39,30.35,24.92,38,15.77,8.33,34.59,7,51.77,2.91,18-4.3,34.41-9.91,53.08-12.48a298.42,298.42,0,0,1,69.54-1.2c36.22,3.56,69.54,15.63,102.9-3.41a84.22,84.22,0,0,0,41.43-59.93c11.28-74.76-90-113.07-165.24-107.19-1.42.12-2.84.24-4.26.38-38.16,3.81-75.62,18.11-106,37.67-20.79,13.38-38.47,30.16-51,49.54a132.21,132.21,0,0,0-12.35,24.25A69.78,69.78,0,0,0,1569.85,1603.65Z"/><path d="M1513.4,1685.38c.06-.09.12-.17.17-.26"/><path class="cls-5-439" d="M1594.79,1633.43s40.77-66.54,135.56-33.75l24.16,8.59"/><path class="cls-4-439" d="M1709.9,1594.22s92.93-26.55,145,39"/><path class="cls-5-439" d="M1623.48,1511.45s8.2,23.43,37.69,18.74,27-35.13,27-37.47"/><path class="cls-5-439" d="M1688.2,1511.45s8.2,23.43,37.69,18.74,27-35.13,27-37.47"/><path class="cls-5-439" d="M1752.92,1511.45s8.2,23.43,37.69,18.74,27-35.13,27-37.47"/><path class="cls-5-439" d="M1817,1511.45s8.19,23.43,37.69,18.74,27.08-32,27.08-34.35"/><path class="cls-6-439" d="M1528.43,1590.33s-8.53,48,28.86,68.42,76.09,15.43,76.09,15.43-56,19.31-94.58-7.7S1528.43,1590.33,1528.43,1590.33Z"/><path class="cls-6-439" d="M1696.28,1658.78s39.71-13.23,87.09-2.2Z"/></g></svg>